<mxfile host="app.diagrams.net" modified="2023-06-21T16:28:49.223Z" agent="Mozilla/5.0 (X11; Ubuntu; Linux x86_64; rv:109.0) Gecko/20100101 Firefox/113.0" etag="VvDE7H_HMsRPh0LZ2er5" version="21.5.0" type="device">
  <diagram name="Page-1" id="CpT_m-j7Am7sjx0DqRG0">
    <mxGraphModel dx="1669" dy="958" grid="1" gridSize="10" guides="1" tooltips="1" connect="1" arrows="1" fold="1" page="1" pageScale="1" pageWidth="850" pageHeight="1100" math="0" shadow="0">
      <root>
        <mxCell id="0" />
        <mxCell id="1" parent="0" />
        <mxCell id="NEY-SCTF0jtiZKWW0wOI-46" value="AutowareSimulation (Scene)" style="rounded=1;whiteSpace=wrap;html=1;labelPosition=center;verticalLabelPosition=top;align=center;verticalAlign=bottom;fontStyle=1;fontSize=17;glass=0;arcSize=5;fillColor=#f5f5f5;fontColor=#000000;strokeColor=#666666;strokeWidth=1;" parent="1" vertex="1">
          <mxGeometry x="120" y="285" width="1280" height="475" as="geometry" />
        </mxCell>
        <mxCell id="NEY-SCTF0jtiZKWW0wOI-37" value="&lt;div style=&quot;font-size: 15px;&quot;&gt;Environment&lt;/div&gt;" style="rounded=1;whiteSpace=wrap;html=1;labelPosition=center;verticalLabelPosition=top;align=center;verticalAlign=bottom;labelBackgroundColor=none;labelBorderColor=none;horizontal=1;fontStyle=1;fontSize=15;glass=0;arcSize=5;strokeWidth=1;strokeColor=#000000;fillColor=#fff2cc;" parent="1" vertex="1">
          <mxGeometry x="140" y="370" width="1040" height="130" as="geometry" />
        </mxCell>
        <mxCell id="NEY-SCTF0jtiZKWW0wOI-35" value="Visual Elements (SJK)" style="rounded=1;whiteSpace=wrap;html=1;labelPosition=center;verticalLabelPosition=top;align=center;verticalAlign=bottom;fontSize=14;" parent="1" vertex="1">
          <mxGeometry x="440" y="400" width="150" height="80" as="geometry" />
        </mxCell>
        <mxCell id="_86dnVmTTonqfILlxaSy-3" value="" style="edgeStyle=orthogonalEdgeStyle;rounded=0;orthogonalLoop=1;jettySize=auto;html=1;" parent="1" source="NEY-SCTF0jtiZKWW0wOI-2" target="NEY-SCTF0jtiZKWW0wOI-3" edge="1">
          <mxGeometry relative="1" as="geometry" />
        </mxCell>
        <mxCell id="NEY-SCTF0jtiZKWW0wOI-2" value="StopLines" style="rounded=1;whiteSpace=wrap;html=1;fillColor=#dae8fc;strokeColor=#6c8ebf;fillStyle=hatch;" parent="1" vertex="1">
          <mxGeometry x="630" y="420" width="110" height="40" as="geometry" />
        </mxCell>
        <mxCell id="_86dnVmTTonqfILlxaSy-2" value="" style="edgeStyle=orthogonalEdgeStyle;rounded=0;orthogonalLoop=1;jettySize=auto;html=1;" parent="1" source="NEY-SCTF0jtiZKWW0wOI-3" target="NEY-SCTF0jtiZKWW0wOI-8" edge="1">
          <mxGeometry relative="1" as="geometry" />
        </mxCell>
        <mxCell id="NEY-SCTF0jtiZKWW0wOI-3" value="&lt;div&gt;TrafficLanes&lt;/div&gt;" style="rounded=1;whiteSpace=wrap;html=1;fillColor=#dae8fc;strokeColor=#6c8ebf;fillStyle=hatch;" parent="1" vertex="1">
          <mxGeometry x="770" y="420" width="110" height="40" as="geometry" />
        </mxCell>
        <mxCell id="NEY-SCTF0jtiZKWW0wOI-4" value="&lt;div&gt;TrafficIntersections&lt;/div&gt;" style="rounded=1;whiteSpace=wrap;html=1;fillColor=#dae8fc;strokeColor=#6c8ebf;shadow=0;glass=0;fillStyle=hatch;gradientColor=none;" parent="1" vertex="1">
          <mxGeometry x="300" y="420" width="110" height="40" as="geometry" />
        </mxCell>
        <mxCell id="NEY-SCTF0jtiZKWW0wOI-6" value="" style="edgeStyle=orthogonalEdgeStyle;rounded=0;orthogonalLoop=1;jettySize=auto;html=1;" parent="1" source="NEY-SCTF0jtiZKWW0wOI-5" target="NEY-SCTF0jtiZKWW0wOI-4" edge="1">
          <mxGeometry relative="1" as="geometry" />
        </mxCell>
        <mxCell id="_86dnVmTTonqfILlxaSy-4" value="" style="edgeStyle=orthogonalEdgeStyle;rounded=0;orthogonalLoop=1;jettySize=auto;html=1;" parent="1" source="NEY-SCTF0jtiZKWW0wOI-5" target="NEY-SCTF0jtiZKWW0wOI-2" edge="1">
          <mxGeometry relative="1" as="geometry" />
        </mxCell>
        <mxCell id="NEY-SCTF0jtiZKWW0wOI-5" value="TrafficLights" style="rounded=1;whiteSpace=wrap;html=1;fillColor=#dae8fc;strokeColor=#6c8ebf;" parent="1" vertex="1">
          <mxGeometry x="460" y="420" width="110" height="40" as="geometry" />
        </mxCell>
        <mxCell id="NEY-SCTF0jtiZKWW0wOI-8" value="&lt;div&gt;TrafficSimulator&lt;/div&gt;" style="rounded=1;whiteSpace=wrap;html=1;fillColor=#dae8fc;strokeColor=#6c8ebf;fillStyle=hatch;" parent="1" vertex="1">
          <mxGeometry x="910" y="420" width="110" height="40" as="geometry" />
        </mxCell>
        <mxCell id="_86dnVmTTonqfILlxaSy-1" value="" style="edgeStyle=orthogonalEdgeStyle;rounded=0;orthogonalLoop=1;jettySize=auto;html=1;dashed=1;dashPattern=1 4;" parent="1" source="NEY-SCTF0jtiZKWW0wOI-26" target="NEY-SCTF0jtiZKWW0wOI-8" edge="1">
          <mxGeometry relative="1" as="geometry" />
        </mxCell>
        <mxCell id="NEY-SCTF0jtiZKWW0wOI-26" value="NPCVehicles" style="rounded=1;whiteSpace=wrap;html=1;fillColor=#e1d5e7;strokeColor=#9673a6;fillStyle=hatch;" parent="1" vertex="1">
          <mxGeometry x="1050" y="420" width="110" height="40" as="geometry" />
        </mxCell>
        <mxCell id="NEY-SCTF0jtiZKWW0wOI-29" value="" style="edgeStyle=orthogonalEdgeStyle;rounded=0;orthogonalLoop=1;jettySize=auto;html=1;dashed=1;dashPattern=1 4;" parent="1" source="NEY-SCTF0jtiZKWW0wOI-28" target="NEY-SCTF0jtiZKWW0wOI-8" edge="1">
          <mxGeometry x="-0.7143" y="5" relative="1" as="geometry">
            <mxPoint as="offset" />
          </mxGeometry>
        </mxCell>
        <mxCell id="_86dnVmTTonqfILlxaSy-6" value="" style="edgeStyle=orthogonalEdgeStyle;rounded=0;orthogonalLoop=1;jettySize=auto;html=1;dashed=1;dashPattern=1 4;" parent="1" source="NEY-SCTF0jtiZKWW0wOI-28" target="NEY-SCTF0jtiZKWW0wOI-43" edge="1">
          <mxGeometry relative="1" as="geometry" />
        </mxCell>
        <mxCell id="NEY-SCTF0jtiZKWW0wOI-28" value="EgoVehicle" style="rounded=1;whiteSpace=wrap;html=1;fillColor=#d5e8d4;strokeColor=#82b366;fillStyle=hatch;" parent="1" vertex="1">
          <mxGeometry x="910" y="530" width="110" height="40" as="geometry" />
        </mxCell>
        <mxCell id="NEY-SCTF0jtiZKWW0wOI-31" value="&lt;div&gt;NPCPedestrians&lt;/div&gt;" style="rounded=1;whiteSpace=wrap;html=1;fillColor=#e1d5e7;strokeColor=#9673a6;fillStyle=hatch;" parent="1" vertex="1">
          <mxGeometry x="160" y="420" width="110" height="40" as="geometry" />
        </mxCell>
        <mxCell id="NEY-SCTF0jtiZKWW0wOI-33" value="Directional Light" style="rounded=0;whiteSpace=wrap;html=1;" parent="1" vertex="1">
          <mxGeometry x="460" y="530" width="110" height="40" as="geometry" />
        </mxCell>
        <mxCell id="NEY-SCTF0jtiZKWW0wOI-34" value="&lt;div&gt;Volume&lt;/div&gt;" style="rounded=0;whiteSpace=wrap;html=1;" parent="1" vertex="1">
          <mxGeometry x="630" y="530" width="110" height="40" as="geometry" />
        </mxCell>
        <mxCell id="NEY-SCTF0jtiZKWW0wOI-42" value="&lt;div&gt;ClockPublisher&lt;/div&gt;" style="rounded=0;whiteSpace=wrap;html=1;" parent="1" vertex="1">
          <mxGeometry x="780" y="530" width="110" height="40" as="geometry" />
        </mxCell>
        <mxCell id="NEY-SCTF0jtiZKWW0wOI-43" value="MainCamera" style="rounded=0;whiteSpace=wrap;html=1;" parent="1" vertex="1">
          <mxGeometry x="1050" y="530" width="110" height="40" as="geometry" />
        </mxCell>
        <mxCell id="NEY-SCTF0jtiZKWW0wOI-44" value="Canvas" style="rounded=1;whiteSpace=wrap;html=1;" parent="1" vertex="1">
          <mxGeometry x="160" y="530" width="110" height="40" as="geometry" />
        </mxCell>
        <mxCell id="NEY-SCTF0jtiZKWW0wOI-45" value="EventSystem" style="rounded=0;whiteSpace=wrap;html=1;" parent="1" vertex="1">
          <mxGeometry x="300" y="530" width="110" height="40" as="geometry" />
        </mxCell>
        <mxCell id="pF7wdaYp8cGEwsIZMhBu-2" style="edgeStyle=orthogonalEdgeStyle;rounded=0;orthogonalLoop=1;jettySize=auto;html=1;exitX=0.003;exitY=0.547;exitDx=0;exitDy=0;exitPerimeter=0;" edge="1" parent="1" source="pF7wdaYp8cGEwsIZMhBu-1" target="NEY-SCTF0jtiZKWW0wOI-43">
          <mxGeometry relative="1" as="geometry" />
        </mxCell>
        <mxCell id="pF7wdaYp8cGEwsIZMhBu-1" value="ScenarioSimulatorConnector" style="rounded=1;whiteSpace=wrap;html=1;labelPosition=center;verticalLabelPosition=top;align=center;verticalAlign=bottom;fontStyle=1;fontSize=15;arcSize=5;" vertex="1" parent="1">
          <mxGeometry x="1210" y="320" width="160" height="420" as="geometry" />
        </mxCell>
        <mxCell id="pF7wdaYp8cGEwsIZMhBu-3" value="ZeroMQ&lt;br&gt;Socket" style="rounded=1;whiteSpace=wrap;html=1;" vertex="1" parent="1">
          <mxGeometry x="1230" y="340" width="120" height="60" as="geometry" />
        </mxCell>
        <mxCell id="pF7wdaYp8cGEwsIZMhBu-4" value="EgoEntity" style="rounded=1;whiteSpace=wrap;html=1;fillColor=#e1d5e7;strokeColor=#9673a6;" vertex="1" parent="1">
          <mxGeometry x="1230" y="420" width="120" height="60" as="geometry" />
        </mxCell>
        <mxCell id="pF7wdaYp8cGEwsIZMhBu-5" value="MiscObjectEntities" style="rounded=1;whiteSpace=wrap;html=1;fillColor=#e1d5e7;strokeColor=#9673a6;" vertex="1" parent="1">
          <mxGeometry x="1230" y="500" width="120" height="60" as="geometry" />
        </mxCell>
        <mxCell id="pF7wdaYp8cGEwsIZMhBu-6" value="&lt;div&gt;VehicleEntities&lt;/div&gt;" style="rounded=1;whiteSpace=wrap;html=1;fillColor=#e1d5e7;strokeColor=#9673a6;" vertex="1" parent="1">
          <mxGeometry x="1230" y="580" width="120" height="60" as="geometry" />
        </mxCell>
        <mxCell id="pF7wdaYp8cGEwsIZMhBu-7" value="PedestrianEntities" style="rounded=1;whiteSpace=wrap;html=1;fillColor=#e1d5e7;strokeColor=#9673a6;" vertex="1" parent="1">
          <mxGeometry x="1230" y="660" width="120" height="60" as="geometry" />
        </mxCell>
      </root>
    </mxGraphModel>
  </diagram>
</mxfile>
